<svg width="16" height="12" viewBox="0 0 16 12" fill="none" xmlns="http://www.w3.org/2000/svg">
<path d="M3.999 7C3.999 7.26522 3.89364 7.51957 3.70611 7.70711C3.51857 7.89464 3.26422 8 2.999 8C2.73378 8 2.47943 7.89464 2.29189 7.70711C2.10436 7.51957 1.999 7.26522 1.999 7C1.999 6.73478 2.10436 6.48043 2.29189 6.29289C2.47943 6.10536 2.73378 6 2.999 6C3.26422 6 3.51857 6.10536 3.70611 6.29289C3.89364 6.48043 3.999 6.73478 3.999 7ZM13.999 7C13.999 7.26522 13.8936 7.51957 13.7061 7.70711C13.5186 7.89464 13.2642 8 12.999 8C12.7338 8 12.4794 7.89464 12.2919 7.70711C12.1044 7.51957 11.999 7.26522 11.999 7C11.999 6.73478 12.1044 6.48043 12.2919 6.29289C12.4794 6.10536 12.7338 6 12.999 6C13.2642 6 13.5186 6.10536 13.7061 6.29289C13.8936 6.48043 13.999 6.73478 13.999 7ZM5.999 6C5.73378 6 5.47943 6.10536 5.29189 6.29289C5.10436 6.48043 4.999 6.73478 4.999 7C4.999 7.26522 5.10436 7.51957 5.29189 7.70711C5.47943 7.89464 5.73378 8 5.999 8H9.999C10.2642 8 10.5186 7.89464 10.7061 7.70711C10.8936 7.51957 10.999 7.26522 10.999 7C10.999 6.73478 10.8936 6.48043 10.7061 6.29289C10.5186 6.10536 10.2642 6 9.999 6H5.999ZM4.861 2.276L3.905 4.19C3.86591 4.27065 3.84877 4.36018 3.8553 4.44957C3.86183 4.53896 3.8918 4.62505 3.94219 4.69917C3.99258 4.77329 4.06162 4.83282 4.14234 4.87176C4.22306 4.9107 4.31262 4.92769 4.402 4.921C5.312 4.848 6.752 4.751 7.999 4.751C9.246 4.751 10.687 4.848 11.596 4.921C11.6854 4.92769 11.7749 4.9107 11.8557 4.87176C11.9364 4.83282 12.0054 4.77329 12.0558 4.69917C12.1062 4.62505 12.1362 4.53896 12.1427 4.44957C12.1492 4.36018 12.1321 4.27065 12.093 4.19L11.137 2.277C11.0956 2.19387 11.0318 2.12391 10.9529 2.07499C10.8739 2.02606 10.7829 2.0001 10.69 2H5.308C5.21522 2 5.12427 2.02582 5.04533 2.07456C4.96639 2.12331 4.90257 2.19305 4.861 2.276Z" fill="#101828"/>
<path d="M2.519 1.515C2.7119 1.065 3.0327 0.681548 3.44157 0.412225C3.85044 0.142902 4.3294 -0.00043446 4.819 9.89209e-07H11.181C12.181 9.89209e-07 13.085 0.596001 13.479 1.515L14.271 3.363C14.346 3.538 14.481 3.682 14.651 3.767C15.151 4.017 15.506 4.482 15.616 5.029L15.951 6.708C15.9843 6.86933 16.0007 7.03267 16 7.198V7.611C16 8.425 15.61 9.154 15 9.608V11.5C15 11.6326 14.9473 11.7598 14.8536 11.8536C14.7598 11.9473 14.6326 12 14.5 12H12.5C12.3674 12 12.2402 11.9473 12.1464 11.8536C12.0527 11.7598 12 11.6326 12 11.5V10.162C10.708 10.21 9.255 10.25 8 10.25C6.745 10.25 5.292 10.21 4 10.162V11.5C4 11.6326 3.94732 11.7598 3.85355 11.8536C3.75979 11.9473 3.63261 12 3.5 12H1.5C1.36739 12 1.24021 11.9473 1.14645 11.8536C1.05268 11.7598 1 11.6326 1 11.5V9.608C0.39 9.154 0 8.425 0 7.611V7.198C0.00016783 7.03345 0.0165808 6.86932 0.049 6.708L0.384 5.028C0.494 4.482 0.849 4.016 1.348 3.767C1.51916 3.68215 1.65431 3.53884 1.729 3.363L2.521 1.515H2.519ZM4.819 1C4.5253 1.00002 4.23806 1.08626 3.99292 1.24803C3.74778 1.4098 3.55552 1.63997 3.44 1.91L2.648 3.757C2.48002 4.15006 2.17765 4.47051 1.795 4.661C1.68479 4.71563 1.58866 4.79493 1.51409 4.89275C1.43951 4.99056 1.38849 5.10426 1.365 5.225L1.029 6.904C1.00935 7.00077 0.999298 7.09925 0.999 7.198V7.611C0.999 8.407 1.619 9.059 2.407 9.095C3.962 9.165 6.193 9.25 7.999 9.25C9.805 9.25 12.036 9.166 13.591 9.095C13.9716 9.07647 14.3304 8.91185 14.5927 8.63542C14.8549 8.35899 15.0005 7.99205 14.999 7.611V7.198C14.999 7.09933 14.989 7.00133 14.969 6.904L14.634 5.224C14.6104 5.10344 14.5593 4.98994 14.4847 4.89231C14.4101 4.79468 14.3141 4.71553 14.204 4.661C13.8213 4.47051 13.519 4.15006 13.351 3.757L12.559 1.909C12.4433 1.639 12.2508 1.40893 12.0055 1.24734C11.7601 1.08574 11.4728 0.99974 11.179 1H4.819Z" fill="#101828"/>
</svg>
