<svg width="16" height="16" viewBox="0 0 16 16" fill="none" xmlns="http://www.w3.org/2000/svg">
<path d="M7.9995 4.75351C7.57323 4.75351 7.15113 4.83747 6.75731 5.0006C6.36349 5.16372 6.00565 5.40282 5.70423 5.70424C5.40281 6.00566 5.16371 6.3635 5.00059 6.75732C4.83746 7.15114 4.7535 7.57324 4.7535 7.99951C4.7535 8.42578 4.83746 8.84788 5.00059 9.2417C5.16371 9.63552 5.40281 9.99336 5.70423 10.2948C6.00565 10.5962 6.36349 10.8353 6.75731 10.9984C7.15113 11.1615 7.57323 11.2455 7.9995 11.2455C8.86039 11.2455 9.68603 10.9035 10.2948 10.2948C10.9035 9.68604 11.2455 8.8604 11.2455 7.99951C11.2455 7.13862 10.9035 6.31298 10.2948 5.70424C9.68603 5.0955 8.86039 4.75351 7.9995 4.75351ZM5.7535 7.99951C5.7535 7.40383 5.99013 6.83255 6.41134 6.41135C6.83254 5.99014 7.40382 5.75351 7.9995 5.75351C8.59518 5.75351 9.16645 5.99014 9.58766 6.41135C10.0089 6.83255 10.2455 7.40383 10.2455 7.99951C10.2455 8.59519 10.0089 9.16646 9.58766 9.58767C9.16645 10.0089 8.59518 10.2455 7.9995 10.2455C7.40382 10.2455 6.83254 10.0089 6.41134 9.58767C5.99013 9.16646 5.7535 8.59519 5.7535 7.99951Z" fill="#101828"/>
<path d="M9.7955 1.3425C9.2685 -0.4475 6.7305 -0.4475 6.2035 1.3425L6.1095 1.6615C6.0727 1.78645 6.0084 1.90158 5.92132 1.99846C5.83424 2.09533 5.72658 2.17149 5.60624 2.22135C5.4859 2.27121 5.35593 2.29351 5.22585 2.28662C5.09578 2.27972 4.96889 2.24381 4.8545 2.1815L4.5625 2.0215C2.9225 1.1295 1.1295 2.9235 2.0225 4.5625L2.1815 4.8545C2.24381 4.96889 2.27972 5.09578 2.28662 5.22585C2.29351 5.35593 2.27121 5.4859 2.22135 5.60624C2.17149 5.72658 2.09533 5.83424 1.99846 5.92132C1.90158 6.0084 1.78645 6.0727 1.6615 6.1095L1.3425 6.2035C-0.4475 6.7305 -0.4475 9.2685 1.3425 9.7955L1.6615 9.8895C1.78645 9.9263 1.90158 9.9906 1.99846 10.0777C2.09533 10.1648 2.17149 10.2724 2.22135 10.3928C2.27121 10.5131 2.29351 10.6431 2.28662 10.7731C2.27972 10.9032 2.24381 11.0301 2.1815 11.1445L2.0215 11.4365C1.1295 13.0765 2.9225 14.8705 4.5625 13.9765L4.8545 13.8175C4.96889 13.7552 5.09578 13.7193 5.22585 13.7124C5.35593 13.7055 5.4859 13.7278 5.60624 13.7776C5.72658 13.8275 5.83424 13.9037 5.92132 14.0005C6.0084 14.0974 6.0727 14.2125 6.1095 14.3375L6.2035 14.6565C6.7305 16.4465 9.2685 16.4465 9.7955 14.6565L9.8895 14.3375C9.9263 14.2125 9.9906 14.0974 10.0777 14.0005C10.1648 13.9037 10.2724 13.8275 10.3928 13.7776C10.5131 13.7278 10.6431 13.7055 10.7731 13.7124C10.9032 13.7193 11.0301 13.7552 11.1445 13.8175L11.4365 13.9775C13.0765 14.8705 14.8705 13.0755 13.9765 11.4365L13.8175 11.1445C13.7552 11.0301 13.7193 10.9032 13.7124 10.7731C13.7055 10.6431 13.7278 10.5131 13.7776 10.3928C13.8275 10.2724 13.9037 10.1648 14.0005 10.0777C14.0974 9.9906 14.2125 9.9263 14.3375 9.8895L14.6565 9.7955C16.4465 9.2685 16.4465 6.7305 14.6565 6.2035L14.3375 6.1095C14.2125 6.0727 14.0974 6.0084 14.0005 5.92132C13.9037 5.83424 13.8275 5.72658 13.7776 5.60624C13.7278 5.4859 13.7055 5.35593 13.7124 5.22585C13.7193 5.09578 13.7552 4.96889 13.8175 4.8545L13.9775 4.5625C14.8705 2.9225 13.0755 1.1295 11.4365 2.0225L11.1445 2.1815C11.0301 2.24381 10.9032 2.27972 10.7731 2.28662C10.6431 2.29351 10.5131 2.27121 10.3928 2.22135C10.2724 2.17149 10.1648 2.09533 10.0777 1.99846C9.9906 1.90158 9.9263 1.78645 9.8895 1.6615L9.7955 1.3425ZM7.1625 1.6255C7.4085 0.7905 8.5905 0.7905 8.8365 1.6255L8.9305 1.9445C9.00952 2.21259 9.14754 2.45959 9.33443 2.6674C9.52132 2.87521 9.75235 3.03856 10.0106 3.14548C10.2688 3.2524 10.5477 3.30017 10.8268 3.28529C11.1059 3.27041 11.3781 3.19326 11.6235 3.0595L11.9145 2.8995C12.6785 2.4845 13.5145 3.3195 13.0985 4.0845L12.9395 4.3765C12.8059 4.62193 12.729 4.89413 12.7143 5.17316C12.6995 5.45218 12.7474 5.73097 12.8544 5.98908C12.9615 6.2472 13.1249 6.4781 13.3327 6.66488C13.5405 6.85165 13.7875 6.98956 14.0555 7.0685L14.3735 7.1625C15.2085 7.4085 15.2085 8.5905 14.3735 8.8365L14.0545 8.9305C13.7864 9.00952 13.5394 9.14754 13.3316 9.33443C13.1238 9.52132 12.9604 9.75235 12.8535 10.0106C12.7466 10.2688 12.6988 10.5477 12.7137 10.8268C12.7286 11.1059 12.8057 11.3781 12.9395 11.6235L13.0995 11.9145C13.5145 12.6785 12.6795 13.5145 11.9145 13.0985L11.6235 12.9395C11.378 12.8057 11.1057 12.7286 10.8266 12.7138C10.5474 12.699 10.2685 12.7469 10.0103 12.8539C9.75204 12.9609 9.52102 13.1244 9.33418 13.3323C9.14734 13.5402 9.00941 13.7873 8.9305 14.0555L8.8365 14.3735C8.5905 15.2085 7.4085 15.2085 7.1625 14.3735L7.0685 14.0545C6.98944 13.7866 6.85145 13.5397 6.66463 13.332C6.47781 13.1243 6.24689 12.961 5.98879 12.8541C5.73069 12.7472 5.45194 12.6994 5.17297 12.7141C4.894 12.7289 4.62186 12.8059 4.3765 12.9395L4.0845 13.0995C3.3205 13.5145 2.4845 12.6795 2.9005 11.9145L3.0595 11.6235C3.19345 11.3781 3.27075 11.1057 3.28573 10.8265C3.3007 10.5473 3.25297 10.2683 3.14604 10.0099C3.03911 9.75158 2.87569 9.52044 2.66778 9.33348C2.45986 9.14652 2.21272 9.00849 1.9445 8.9295L1.6255 8.8355C0.7905 8.5895 0.7905 7.4075 1.6255 7.1615L1.9445 7.0675C2.21231 6.98841 2.45904 6.85044 2.66664 6.66369C2.87425 6.47694 3.03746 6.24613 3.14435 5.98816C3.25124 5.73018 3.2991 5.45157 3.28442 5.17272C3.26973 4.89387 3.19289 4.62182 3.0595 4.3765L2.8995 4.0845C2.4845 3.3205 3.3195 2.4845 4.0845 2.9005L4.3765 3.0595C4.62186 3.19308 4.894 3.27007 5.17297 3.28485C5.45194 3.29963 5.73069 3.25182 5.98879 3.14492C6.24689 3.03801 6.47781 2.87473 6.66463 2.66702C6.85145 2.45931 6.98944 2.21245 7.0685 1.9445L7.1625 1.6255Z" fill="#101828"/>
</svg>
